<mxfile host="app.diagrams.net" modified="2023-08-04T06:03:53.550Z" agent="Mozilla/5.0 (Macintosh; Intel Mac OS X 10.15; rv:109.0) Gecko/20100101 Firefox/115.0" version="21.6.5" etag="Q6qqtLFIbXqScWx_qTde" type="github">
  <diagram name="Page-1" id="ghNtfSu7WnL0lu_Ks2JM">
    <mxGraphModel>
      <root>
        <mxCell id="0" />
        <mxCell id="1" parent="0" />
      </root>
    </mxGraphModel>
  </diagram>
</mxfile>
